<svg width="340" height="200" xmlns="http://www.w3.org/2000/svg">
 <g id="Layer_1">
  <title>Layer 1</title>
  <line fill="none" stroke="#0088ff" x1="167.4118" y1="85.82355" x2="203.29414" y2="107.58824" id="svg_14"/>
  <line fill="none" stroke="#0088ff" x1="205.64708" y1="134.64706" x2="223.88237" y2="159.35293" id="svg_21"/>
  <line fill="none" stroke="#0088ff" x1="203.29414" y1="134.64706" x2="183.29415" y2="157.58822" id="svg_19"/>
  <rect stroke-width="0" id="svg_1" height="30" width="30" y="7" x="92.11765" stroke="#000" fill="#0088ff"/>
  <rect stroke-width="0" id="svg_26" height="30" width="30" y="57.42988" x="31.2112" stroke="#000" fill="#0088ff"/>
  <path id="svg_27" d="m148,57l30,0l0,30l-30,0l0,-30z" opacity="undefined" stroke-width="0" stroke="#000" fill="#0088ff"/>
  <rect stroke-width="0" id="svg_3" height="30" width="30" y="107" x="8.85827" stroke="#000" fill="#0088ff"/>
  <path id="svg_4" d="m49.23498,107l30,0l0,30l-30,0l0,-30z" opacity="undefined" stroke-width="0" stroke="#000" fill="#0088ff"/>
  <rect stroke-width="0" id="svg_5" height="30" width="30" y="107" x="106" stroke="#000" fill="#0088ff"/>
  <path id="svg_6" d="m190.58824,107l30,0l0,30l-30,0l0,-30z" opacity="undefined" stroke-width="0" stroke="#000" fill="#0088ff"/>
  <rect stroke-width="0" id="svg_7" height="30" width="30" y="157" x="85.32882" stroke="#000" fill="#0088ff"/>
  <path id="svg_8" d="m125.70553,157l30,0l0,30l-30,0l0,-30z" opacity="undefined" stroke-width="0" stroke="#000" fill="#0088ff"/>
  <rect stroke-width="0" id="svg_9" height="30" width="30" y="157" x="169.44643" stroke="#000" fill="#0088ff"/>
  <path id="svg_10" d="m209.82314,157.00001l30,0l0,30l-30,0l0,-30z" opacity="undefined" stroke-width="0" stroke="#000" fill="#0088ff"/>
  <line fill="none" stroke="#0088ff" x1="106.23535" y1="35.82357" x2="43.2942" y2="58.76473" id="svg_11"/>
  <line fill="none" stroke="#0088ff" x1="106.82359" y1="35.82357" x2="162.11769" y2="57.58826" id="svg_12"/>
  <line fill="none" stroke="#0088ff" x1="160.94122" y1="85.23531" x2="122.70594" y2="108.76471" id="svg_13"/>
  <line fill="none" stroke="#0088ff" x1="42.70597" y1="84.64708" x2="24.47068" y2="109.35295" id="svg_15"/>
  <line fill="none" stroke="#0088ff" x1="47.41185" y1="85.82355" x2="63.88243" y2="108.17648" id="svg_17"/>
  <line fill="none" stroke="#0088ff" x1="119.76476" y1="133.47059" x2="99.17653" y2="160.5294" id="svg_18"/>
  <line fill="none" stroke="#0088ff" x1="123.29417" y1="135.23529" x2="140.94122" y2="156.99999" id="svg_20"/>
  <text fill="#ffffff" stroke="#0088ff" stroke-width="0" x="101.52947" y="28.17651" id="svg_23" font-size="18" font-family="'Roboto Mono'" text-anchor="start" xml:space="preserve" font-weight="bold">1</text>
  <text fill="#ffffff" stroke="#0088ff" stroke-width="0" x="41.5295" y="78.76473" id="svg_24" font-size="18" font-family="'Roboto Mono'" text-anchor="start" xml:space="preserve" font-weight="bold">2</text>
  <text fill="#ffffff" stroke="#0088ff" stroke-width="0" x="157.4118" y="79" id="svg_25" font-size="18" font-family="'Roboto Mono'" text-anchor="start" xml:space="preserve" font-weight="bold">3</text>
  <text style="cursor: move;" fill="#ffffff" stroke="#0088ff" stroke-width="0" x="18.0001" y="128.76471" id="svg_28" font-size="18" font-family="'Roboto Mono'" text-anchor="start" xml:space="preserve" font-weight="bold">5</text>
  <text style="cursor: move;" fill="#ffffff" stroke="#0088ff" stroke-width="0" x="58.00008" y="128.76471" id="svg_29" font-size="18" font-family="'Roboto Mono'" text-anchor="start" xml:space="preserve" font-weight="bold">6</text>
  <text style="cursor: move;" fill="#ffffff" stroke="#ffffff" stroke-width="0" x="115.05888" y="128.76471" id="svg_33" font-size="18" font-family="'Roboto Mono'" text-anchor="start" xml:space="preserve" font-weight="bold">7</text>
  <text fill="#ffffff" stroke="#ffffff" stroke-width="0" x="199.92561" y="128.76471" id="svg_34" font-size="18" font-family="'Roboto Mono'" text-anchor="start" xml:space="preserve" font-weight="bold">8</text>
  <text style="cursor: move;" fill="#ffffff" stroke="#ffffff" stroke-width="0" x="94.47065" y="178.76469" id="svg_35" font-size="18" font-family="'Roboto Mono'" text-anchor="start" xml:space="preserve" font-weight="bold">9</text>
  <text fill="#ffffff" stroke="#ffffff" stroke-width="0" x="127.63303" y="178.33734" id="svg_36" font-size="18" font-family="'Roboto Mono'" text-anchor="start" xml:space="preserve" font-weight="bold">10</text>
  <text style="cursor: move;" fill="#ffffff" stroke="#ffffff" stroke-width="0" x="173.27633" y="178.76469" id="svg_37" font-size="18" font-family="'Roboto Mono'" text-anchor="start" xml:space="preserve" font-weight="bold">11</text>
  <text fill="#ffffff" stroke="#ffffff" stroke-width="0" x="213.59808" y="178.76469" id="svg_38" font-size="18" font-family="'Roboto Mono'" text-anchor="start" xml:space="preserve" font-weight="bold">12</text>
  <line fill="none" stroke="#0088ff" x1="256.48385" y1="86.17561" x2="292.36619" y2="107.9403" id="svg_2"/>
  <line fill="none" stroke="#0088ff" x1="294.71913" y1="134.99912" x2="312.95442" y2="159.70499" id="svg_16"/>
  <line fill="none" stroke="#0088ff" x1="292.36619" y1="134.99912" x2="272.3662" y2="157.94028" id="svg_22"/>
  <path id="svg_30" d="m237.07205,57.35206l30,0l0,30l-30,0l0,-30z" opacity="undefined" stroke-width="0" stroke="#000" fill="#0088ff"/>
  <path id="svg_32" d="m279.66029,107.35206l30,0l0,30l-30,0l0,-30z" opacity="undefined" stroke-width="0" stroke="#000" fill="#0088ff"/>
  <rect stroke-width="0" id="svg_41" height="30" width="30" y="157.35206" x="258.51848" stroke="#000" fill="#0088ff"/>
  <path id="svg_42" d="m298.89519,157.35207l30,0l0,30l-30,0l0,-30z" opacity="undefined" stroke-width="0" stroke="#000" fill="#0088ff"/>
  <text fill="#ffffff" stroke="#0088ff" stroke-width="0" x="246.0565" y="79.35206" id="svg_46" font-size="18" font-family="'Roboto Mono'" text-anchor="start" xml:space="preserve" font-weight="bold">4</text>
  <text style="cursor: move;" fill="#ffffff" stroke="#ffffff" stroke-width="0" x="289.42501" y="129.11677" id="svg_48" font-size="18" font-family="'Roboto Mono'" text-anchor="start" xml:space="preserve" font-weight="bold">9</text>
  <text fill="#ffffff" stroke="#ffffff" stroke-width="0" x="261.92103" y="179.11675" id="svg_51" font-size="18" font-family="'Roboto Mono'" text-anchor="start" xml:space="preserve" font-weight="bold">13</text>
  <text fill="#ffffff" stroke="#ffffff" stroke-width="0" x="302.67013" y="179.11675" id="svg_52" font-size="18" font-family="'Roboto Mono'" text-anchor="start" xml:space="preserve" font-weight="bold">14</text>
  <line stroke="#0088ff" fill-opacity="0" id="svg_54" y2="58.38708" x2="258.45738" y1="35.74843" x1="103.47516" fill="none"/>
 </g>

</svg>